<svg width="18" height="18" fill="none" xmlns="http://www.w3.org/2000/svg"><path d="M9 6.3a2.7 2.7 0 100 5.4 2.7 2.7 0 000-5.4zm0-1.8a4.5 4.5 0 110 9 4.5 4.5 0 010-9zm5.85-.225a1.125 1.125 0 11-2.25 0 1.125 1.125 0 012.25 0zM9 1.8c-2.227 0-2.59.006-3.626.052-.706.033-1.18.128-1.618.299a2.59 2.59 0 00-.972.633 2.601 2.601 0 00-.634.972c-.17.44-.265.913-.298 1.618C1.805 6.368 1.8 6.714 1.8 9c0 2.227.006 2.59.052 3.626.033.705.128 1.18.298 1.617.153.392.333.674.632.972.303.303.585.484.972.633.445.172.918.267 1.62.3.994.047 1.34.052 3.626.052 2.227 0 2.59-.006 3.626-.052.704-.034 1.178-.128 1.617-.298.39-.152.674-.333.972-.632.304-.303.485-.585.634-.972.171-.444.266-.918.299-1.62.047-.993.052-1.34.052-3.626 0-2.227-.006-2.59-.052-3.626-.034-.704-.128-1.18-.299-1.618a2.619 2.619 0 00-.633-.972 2.595 2.595 0 00-.972-.634c-.44-.17-.914-.265-1.618-.298C11.633 1.805 11.286 1.8 9 1.8zM9 0c2.445 0 2.75.009 3.71.054.958.045 1.61.195 2.185.418A4.388 4.388 0 0116.49 1.51c.457.45.812.994 1.038 1.595.222.573.373 1.227.418 2.185.042.96.054 1.265.054 3.71 0 2.445-.009 2.75-.054 3.71-.045.958-.196 1.61-.419 2.185a4.395 4.395 0 01-1.037 1.595 4.44 4.44 0 01-1.595 1.038c-.573.222-1.227.373-2.185.418-.96.042-1.265.054-3.71.054-2.445 0-2.75-.009-3.71-.054-.958-.045-1.61-.196-2.185-.419A4.4 4.4 0 011.51 16.49a4.414 4.414 0 01-1.038-1.595C.25 14.322.1 13.668.054 12.71.012 11.75 0 11.445 0 9c0-2.445.009-2.75.054-3.71s.195-1.61.418-2.185A4.392 4.392 0 011.51 1.51c.45-.458.994-.812 1.595-1.038C3.679.25 4.331.1 5.29.054 6.25.012 6.555 0 9 0z" fill="#8A8A8A"/></svg>