<svg width="18" height="18" fill="none" xmlns="http://www.w3.org/2000/svg"><path d="M3.34 0A3.353 3.353 0 000 3.34v11.32A3.353 3.353 0 003.34 18h11.32A3.353 3.353 0 0018 14.66V3.34A3.353 3.353 0 0014.66 0H3.34zm0 1.636h11.32c.95 0 1.704.755 1.704 1.704v11.32c0 .95-.755 1.704-1.704 1.704H3.34a1.691 1.691 0 01-1.704-1.704V3.34c0-.95.755-1.704 1.704-1.704zm5.43 4.28c-.601-.006-1.113 0-1.4.14-.192.093-.339.304-.25.314.113.016.365.07.5.252.172.234.166.761.166.761s.096 1.45-.234 1.633c-.227.125-.537-.128-1.208-1.282-.342-.594-.6-1.25-.6-1.25s-.05-.121-.138-.185c-.109-.08-.26-.105-.26-.105l-1.6.01s-.24.01-.326.112c-.08.095-.007.283-.007.283s1.253 2.931 2.672 4.408c1.3 1.356 2.778 1.266 2.778 1.266h.67s.202-.022.304-.131c.097-.102.093-.295.093-.295s-.013-.897.403-1.031c.412-.129.936.868 1.495 1.252.426.29.748.227.748.227l1.497-.022s.78-.048.409-.665c-.029-.048-.214-.454-1.109-1.285-.94-.869-.815-.728.316-2.234.687-.917.962-1.476.876-1.72-.082-.226-.588-.166-.588-.166l-1.685.01s-.124-.016-.216.039a.471.471 0 00-.148.181s-.268.71-.623 1.314c-.748 1.272-1.051 1.342-1.173 1.263-.284-.186-.214-.742-.214-1.135 0-1.237.188-1.748-.364-1.882-.183-.045-.317-.073-.783-.078z" fill="#8A8A8A"/></svg>